<svg xmlns="http://www.w3.org/2000/svg" xmlns:xlink="http://www.w3.org/1999/xlink" xmlns:sketch="http://www.bohemiancoding.com/sketch/ns" width="474px" height="160px" viewBox="0 0 474 160" version="1.1">
    <title>Artboard 1</title>
    <description>Created with Sketch (http://www.bohemiancoding.com/sketch)</description>
    <g id="Page 1" stroke="none" stroke-width="1" fill="none" fill-rule="evenodd">
        <g id="g10" transform="translate(238.500000, 78.212500) scale(1, -1) translate(-238.500000, -78.212500) translate(3.000000, -1.287500)">
            <g id="g12">
                <g id="g14">
                    <use id="path20" xlink:href="#path-1"/>
                    <g id="Group" mask="url(#mask-2)">
                        <path d="M147.5675 106.3 L165.125125 106.3 L165.125125 157.3 L147.5675 157.3 L147.5675 106.3 L147.5675 106.3 Z M147.5675 106.3" id="path22" fill="#4FC4C8"/>
                        <path d="M200.3925 142 L217.38125 142 L217.38125 106.3 L234.935 106.3 L234.935 142 L251.92375 142 L251.92375 157.3 L200.3925 157.3 L200.3925 142" id="path24" fill="#389C9A"/>
                        <path d="M72.463375 106.3 L90.017125 106.3 L90.017125 157.3 L72.463375 157.3 L72.463375 106.3 L72.463375 106.3 Z M72.463375 106.3" id="path26" fill="#389C9A"/>
                        <path d="M108.705125 106.3 L126.259875 106.3 L126.259875 157.3 L108.705125 157.3 L108.705125 106.3 L108.705125 106.3 Z M108.705125 106.3" id="path28" fill="#389C9A"/>
                        <path d="M26.8985 158.7 C8.4956 158.7 0 147 0 132.5 L0 106.3 L17.55425 106.3 L17.55425 132.1 C17.55425 139.7 19.8 143.4 26.9 143.4 C31.42775 143.4 35.4 139.7 35.4 131.1 L35.392125 123.2 L52.94675 123.2 L52.94675 130.7 C52.94675 146 44.5 158.7 26.9 158.7" id="path30" fill="#4FC4C8"/>
                        <path d="M468.69 142 L468.69 157.3 L421.69 157.3 L421.69 106.3 L461.895 106.3 L461.895 115.7 L439.24375 115.7 L439.24375 142 L468.69 142" id="path32" fill="#4FC4C8"/>
                        <path d="M307.80625 106.3 L325.36 106.3 L325.36 157.3 L307.80625 157.3 L307.80625 106.3 L307.80625 106.3 Z M307.80625 106.3" id="path34" fill="#4FC4C8"/>
                        <path d="M271.56375 106.3 L289.1185 106.3 L289.1185 157.3 L271.56375 157.3 L271.56375 106.3 L271.56375 106.3 Z M271.56375 106.3" id="path36" fill="#4FC4C8"/>
                        <path d="M369.71 111.4 L363.4825 111.4 L363.4825 142.9 L369.71 142.9 C379.19625 142.9 382.7 139.3 382.7 127.1 C382.735 115 379.2 111.4 369.7 111.4 L369.71 111.4 Z M370.56 157.3 L345.92625 157.3 L345.92625 106.3 L394.42375 106.3 C397.77125 110.4 400.3 116.8 400.3 127.1 C400.28875 148.9 390.2 157.3 370.6 157.3 L370.56 157.3 Z M370.56 157.3" id="path38" fill="#389C9A"/>
                        <path d="M165.125 52.6 L147.5675 52.6 L147.5675 1.4 L192.73 1.4 L192.73 16.7 L165.125 16.7 L165.125 52.6" id="path40" fill="#4FC4C8"/>
                        <path d="M217.38125 1.4 L234.935 1.4 L234.935 52.6 L217.38125 52.6 L217.38125 1.4 L217.38125 1.4 Z M217.38125 1.4" id="path42" fill="#389C9A"/>
                        <path d="M108.705125 26.5 C108.705125 19 105.7 15.3 99.4 15.3 C92.99075 15.3 90 19 90 26.5 L90.017125 52.6 L72.463375 52.6 L72.463375 27.2 C72.463375 9.6 82.7 0 99.4 0 C116.065375 0 126.3 9.6 126.3 27.2 L126.26 52.6 L108.705125 52.6 L108.705125 26.5" id="path44" fill="#389C9A"/>
                        <path d="M35.392125 25.6 C35.392125 19 33.3 15.3 26.9 15.3 C19.818875 15.3 17.6 19 17.6 26.6 L17.55425 52.6 L0 52.6 L0 26.2 C0 11.8 8.5 0 26.9 0 C44.451625 0 52.9 11.8 52.9 26.2 L52.94675 37.9 L35.392125 37.9 L35.392125 25.6" id="path46" fill="#4FC4C8"/>
                        <path d="M439.24375 16.7 L439.24375 46.7 L461.895 46.7 L461.895 52.6 L421.69 52.6 L421.69 1.4 L470.6725 1.4 L470.6725 16.7 L439.24375 16.7" id="path48" fill="#4FC4C8"/>
                        <path d="M307.80625 26.5 C307.80625 19 304.8 15.3 298.5 15.3 C292.09125 15.3 289.1 19 289.1 26.5 L289.11875 52.6 L271.56375 52.6 L271.56375 27.2 C271.56375 9.6 281.8 0 298.5 0 C315.16875 0 325.4 9.6 325.4 27.2 L325.36 52.6 L307.80625 52.6 L307.80625 26.5" id="path50" fill="#4FC4C8"/>
                        <path d="M394.42375 52.6 L345.92625 52.6 L345.92625 1.4 L363.4825 1.4 L363.4825 43.3 C366.59625 43.3 370.3 43.5 372.5 43.7 L385 1.4 L402.8375 1.4 L387.97375 47.7 C390.1825 48.7 392.4 50.3 394.4 52.6" id="path52" fill="#389C9A"/>
                    </g>
                    <g id="Group" mask="url(#mask-2)">
                        <path d="M165.7 83.1 L181.3 83.1 L181.3 87.5 C181.3 90.2 181.2 94.1 181 96.1 L187 96.1 C186.9 94 186.8 90.1 186.8 87.5 L186.8 70.2 C186.8 67.7 186.9 64.7 187 63.3 L181 63.3 C181.2 64.7 181.3 67.7 181.3 70.3 L181.3 78.4 L165.7 78.4 L165.7 70.2 C165.7 67.7 165.7 64.7 165.8 63.3 L159.9 63.3 C159.9 64.7 160 67.7 160 70.3 L160 87.5 C160 90.9 159.9 94.8 159.9 96.1 L165.8 96.1 C165.7 94.8 165.7 90.9 165.7 87.5 L165.7 83.1 " id="path54" fill="#8A8B8A"/>
                        <path d="M215.9 86.8 L211.9 77 L219.9 77 L215.9 86.8 L215.9 86.8 ZM225.6 63.3 C225.2 64.6 224.4 66.2 223.7 68 L221.9 72.4 L210 72.4 L208.2 68.1 C207.3 66.1 206.8 64.6 206.3 63.3 L200.3 63.3 C201.4 65.4 202.7 67.9 203.8 70.6 L215.5 96.6 L217 96.6 L228.9 70.6 C230.1 67.9 231.5 65.3 232.6 63.3 L225.6 63.3 L225.6 63.3 ZM225.6 63.3 " id="path56" fill="#8A8B8A"/>
                        <path d="M260 67.7 C263.2 67.7 266.1 68.5 268.2 70.4 L268.2 64.2 C265.5 63.5 263.4 62.8 259.5 62.8 C249.4 62.8 242.1 70.4 242.1 79.8 C242.1 89.1 249.4 96.7 259.5 96.7 C263.5 96.7 265.4 95.9 267.9 95.4 L267.9 89 C265.8 90.9 263 91.8 259.9 91.8 C253.1 91.8 247.7 86.4 247.7 79.8 C247.7 73.1 253.1 67.7 260 67.7 " id="path58" fill="#8A8B8A"/>
                        <path d="M290.6 80.7 L298.5 90.5 C300.7 93.3 301.6 94.5 302.6 96.1 L309.2 96.1 C307.6 94.3 306.5 93.1 304.3 90.3 L296.1 80.4 L306 69.1 C308.1 66.7 309.7 65.1 311.4 63.3 L303.4 63.3 C302.8 64.3 302 65.6 300.2 67.5 L290.6 78.7 L290.6 71.9 C290.6 68.4 290.7 64.8 290.8 63.3 L284.8 63.3 C284.9 64.8 285 68.4 285 71.9 L285 87.5 C285 91 284.9 94.6 284.8 96.1 L290.8 96.1 C290.7 94.6 290.6 91 290.6 87.5 L290.6 80.7 " id="path60" fill="#8A8B8A"/>
                        <path d="M175.9 84 " id="Path 29" stroke="#979797"/>
                    </g>
                </g>
            </g>
        </g>
    </g>
</svg>
